<mxfile host="app.diagrams.net" modified="2023-06-21T23:30:26.221Z" agent="Mozilla/5.0 (Macintosh; Intel Mac OS X 10_15_7) AppleWebKit/605.1.15 (KHTML, like Gecko) Version/16.2 Safari/605.1.15" etag="qmWjkRlsiw9z-9bglgTQ" version="21.5.0" type="device">
  <diagram name="Seite-1" id="VgYrzBW1nPDxvzeYBfC_">
    <mxGraphModel dx="662" dy="456" grid="1" gridSize="10" guides="1" tooltips="1" connect="1" arrows="1" fold="1" page="1" pageScale="1" pageWidth="827" pageHeight="1169" math="0" shadow="0">
      <root>
        <mxCell id="0" />
        <mxCell id="1" parent="0" />
        <mxCell id="SyGSCCSuvmH1LhOSkO1K-22" value="" style="whiteSpace=wrap;html=1;" vertex="1" parent="1">
          <mxGeometry x="70" y="695" width="620" height="90" as="geometry" />
        </mxCell>
        <mxCell id="SyGSCCSuvmH1LhOSkO1K-57" style="rounded=0;orthogonalLoop=1;jettySize=auto;html=1;entryX=0.5;entryY=0;entryDx=0;entryDy=0;exitX=0.362;exitY=1.05;exitDx=0;exitDy=0;exitPerimeter=0;" edge="1" parent="1" source="SyGSCCSuvmH1LhOSkO1K-62" target="SyGSCCSuvmH1LhOSkO1K-55">
          <mxGeometry relative="1" as="geometry">
            <mxPoint x="415" y="580" as="sourcePoint" />
            <mxPoint x="329" y="688.5" as="targetPoint" />
          </mxGeometry>
        </mxCell>
        <mxCell id="SyGSCCSuvmH1LhOSkO1K-59" value="audit&lt;br&gt;&lt;span style=&quot;font-size: 12px;&quot;&gt;Emissions( )&lt;br&gt;&lt;/span&gt;" style="edgeLabel;html=1;align=center;verticalAlign=middle;resizable=0;points=[];" vertex="1" connectable="0" parent="SyGSCCSuvmH1LhOSkO1K-57">
          <mxGeometry x="0.1287" y="-3" relative="1" as="geometry">
            <mxPoint x="6" y="6" as="offset" />
          </mxGeometry>
        </mxCell>
        <mxCell id="SyGSCCSuvmH1LhOSkO1K-6" style="rounded=0;orthogonalLoop=1;jettySize=auto;html=1;entryX=0.5;entryY=0;entryDx=0;entryDy=0;" edge="1" parent="1" target="SyGSCCSuvmH1LhOSkO1K-9">
          <mxGeometry relative="1" as="geometry">
            <mxPoint x="433.8888888888889" y="580" as="sourcePoint" />
          </mxGeometry>
        </mxCell>
        <mxCell id="SyGSCCSuvmH1LhOSkO1K-7" value="produce( )" style="edgeLabel;html=1;align=center;verticalAlign=middle;resizable=0;points=[];" vertex="1" connectable="0" parent="SyGSCCSuvmH1LhOSkO1K-6">
          <mxGeometry x="-0.0716" relative="1" as="geometry">
            <mxPoint x="-1" y="8" as="offset" />
          </mxGeometry>
        </mxCell>
        <mxCell id="SyGSCCSuvmH1LhOSkO1K-1" value="produce( )" style="rounded=0;orthogonalLoop=1;jettySize=auto;html=1;entryX=0.504;entryY=-0.029;entryDx=0;entryDy=0;entryPerimeter=0;exitX=0.5;exitY=1;exitDx=0;exitDy=0;" edge="1" parent="1" source="SyGSCCSuvmH1LhOSkO1K-48" target="SyGSCCSuvmH1LhOSkO1K-4">
          <mxGeometry x="-0.2618" relative="1" as="geometry">
            <mxPoint x="210" y="650" as="sourcePoint" />
            <mxPoint as="offset" />
          </mxGeometry>
        </mxCell>
        <mxCell id="SyGSCCSuvmH1LhOSkO1K-3" value="Tier 2&amp;nbsp;&lt;br&gt;Supplier" style="text;html=1;strokeColor=none;fillColor=none;align=center;verticalAlign=middle;whiteSpace=wrap;rounded=0;" vertex="1" parent="1">
          <mxGeometry x="145.5" y="445" width="60" height="30" as="geometry" />
        </mxCell>
        <mxCell id="SyGSCCSuvmH1LhOSkO1K-4" value="&lt;font style=&quot;font-size: 9px;&quot;&gt;&lt;b style=&quot;font-size: 9px;&quot;&gt;ProductID&lt;/b&gt;: &amp;nbsp;1&lt;br style=&quot;font-size: 9px;&quot;&gt;&lt;br style=&quot;font-size: 9px;&quot;&gt;&lt;b style=&quot;font-size: 9px;&quot;&gt;basedOn&lt;/b&gt;: NULL&lt;br style=&quot;font-size: 9px;&quot;&gt;&lt;br style=&quot;font-size: 9px;&quot;&gt;&lt;b style=&quot;font-size: 9px;&quot;&gt;EmissionTokens&lt;/b&gt;: &lt;br style=&quot;font-size: 9px;&quot;&gt;&lt;span style=&quot;white-space: pre; font-size: 9px;&quot;&gt;&#x9;&lt;span style=&quot;white-space: pre; font-size: 9px;&quot;&gt;&#x9;&lt;/span&gt;&lt;/span&gt;[1]&lt;/font&gt;" style="aspect=fixed;align=left;verticalAlign=middle;html=1;fontSize=9;horizontal=1;fillColor=#d5e8d4;strokeColor=#82b366;" vertex="1" parent="1">
          <mxGeometry x="167" y="700" width="80" height="80" as="geometry" />
        </mxCell>
        <mxCell id="SyGSCCSuvmH1LhOSkO1K-5" value="&lt;b style=&quot;font-size: 9px;&quot;&gt;TransferedID&lt;/b&gt;: 1&lt;br style=&quot;font-size: 9px;&quot;&gt;&lt;br style=&quot;font-size: 9px;&quot;&gt;&lt;b style=&quot;font-size: 9px;&quot;&gt;from&lt;/b&gt;: supplier2ID&lt;br style=&quot;font-size: 9px;&quot;&gt;&lt;br style=&quot;font-size: 9px;&quot;&gt;&lt;b style=&quot;font-size: 9px;&quot;&gt;to&lt;/b&gt;: supplier1ID" style="whiteSpace=wrap;html=1;aspect=fixed;fontSize=9;align=left;fillColor=#dae8fc;strokeColor=#6c8ebf;" vertex="1" parent="1">
          <mxGeometry x="253" y="700" width="80" height="80" as="geometry" />
        </mxCell>
        <mxCell id="SyGSCCSuvmH1LhOSkO1K-9" value="&lt;font style=&quot;font-size: 9px;&quot;&gt;&lt;b style=&quot;font-size: 9px;&quot;&gt;ProductID&lt;/b&gt;: &amp;nbsp;2&lt;br style=&quot;font-size: 9px;&quot;&gt;&lt;br style=&quot;font-size: 9px;&quot;&gt;&lt;b style=&quot;font-size: 9px;&quot;&gt;basedOn&lt;/b&gt;: [ 1 ]&lt;br style=&quot;font-size: 9px;&quot;&gt;&lt;br style=&quot;font-size: 9px;&quot;&gt;&lt;b style=&quot;font-size: 9px;&quot;&gt;EmissionTokens&lt;/b&gt;: &lt;br style=&quot;font-size: 9px;&quot;&gt;&lt;span style=&quot;white-space: pre; font-size: 9px;&quot;&gt;&#x9;&lt;span style=&quot;white-space: pre; font-size: 9px;&quot;&gt;&#x9;&lt;/span&gt;&lt;/span&gt;[1,2]&lt;/font&gt;" style="aspect=fixed;align=left;verticalAlign=middle;html=1;fontSize=9;horizontal=1;fillColor=#d5e8d4;strokeColor=#82b366;" vertex="1" parent="1">
          <mxGeometry x="425" y="700" width="80" height="80" as="geometry" />
        </mxCell>
        <mxCell id="SyGSCCSuvmH1LhOSkO1K-12" value="transfer( )" style="text;html=1;align=center;verticalAlign=middle;resizable=0;points=[];autosize=1;strokeColor=none;fillColor=none;rotation=310;" vertex="1" parent="1">
          <mxGeometry x="316.5" y="617" width="80" height="30" as="geometry" />
        </mxCell>
        <mxCell id="SyGSCCSuvmH1LhOSkO1K-13" style="rounded=0;orthogonalLoop=1;jettySize=auto;html=1;exitX=0.75;exitY=1;exitDx=0;exitDy=0;entryX=0.25;entryY=0;entryDx=0;entryDy=0;" edge="1" parent="1" source="SyGSCCSuvmH1LhOSkO1K-62" target="SyGSCCSuvmH1LhOSkO1K-14">
          <mxGeometry relative="1" as="geometry">
            <mxPoint x="445" y="580" as="sourcePoint" />
          </mxGeometry>
        </mxCell>
        <mxCell id="SyGSCCSuvmH1LhOSkO1K-14" value="&lt;b style=&quot;font-size: 9px;&quot;&gt;TransferedID&lt;/b&gt;: 2&lt;br style=&quot;font-size: 9px;&quot;&gt;&lt;br style=&quot;font-size: 9px;&quot;&gt;&lt;b style=&quot;font-size: 9px;&quot;&gt;from&lt;/b&gt;: supplier2ID&lt;br style=&quot;font-size: 9px;&quot;&gt;&lt;br style=&quot;font-size: 9px;&quot;&gt;&lt;b style=&quot;font-size: 9px;&quot;&gt;to&lt;/b&gt;: oemID" style="whiteSpace=wrap;html=1;aspect=fixed;fontSize=9;align=left;fillColor=#dae8fc;strokeColor=#6c8ebf;" vertex="1" parent="1">
          <mxGeometry x="512" y="700" width="80" height="80" as="geometry" />
        </mxCell>
        <mxCell id="SyGSCCSuvmH1LhOSkO1K-15" style="rounded=0;orthogonalLoop=1;jettySize=auto;html=1;entryX=0.5;entryY=0;entryDx=0;entryDy=0;exitX=0.75;exitY=1;exitDx=0;exitDy=0;" edge="1" parent="1" target="SyGSCCSuvmH1LhOSkO1K-18">
          <mxGeometry relative="1" as="geometry">
            <mxPoint x="625" y="580" as="sourcePoint" />
          </mxGeometry>
        </mxCell>
        <mxCell id="SyGSCCSuvmH1LhOSkO1K-16" value="produce( )" style="edgeLabel;html=1;align=center;verticalAlign=middle;resizable=0;points=[];" vertex="1" connectable="0" parent="SyGSCCSuvmH1LhOSkO1K-15">
          <mxGeometry x="-0.0716" relative="1" as="geometry">
            <mxPoint x="8" y="18" as="offset" />
          </mxGeometry>
        </mxCell>
        <mxCell id="SyGSCCSuvmH1LhOSkO1K-18" value="&lt;font style=&quot;font-size: 9px;&quot;&gt;&lt;b style=&quot;font-size: 9px;&quot;&gt;ProductID&lt;/b&gt;: &amp;nbsp;3&lt;br style=&quot;font-size: 9px;&quot;&gt;&lt;br style=&quot;font-size: 9px;&quot;&gt;&lt;b style=&quot;font-size: 9px;&quot;&gt;basedOn&lt;/b&gt;: [ 2 ]&lt;br style=&quot;font-size: 9px;&quot;&gt;&lt;br style=&quot;font-size: 9px;&quot;&gt;&lt;b style=&quot;font-size: 9px;&quot;&gt;EmissionTokens&lt;/b&gt;: &lt;br style=&quot;font-size: 9px;&quot;&gt;&lt;span style=&quot;white-space: pre; font-size: 9px;&quot;&gt;&#x9;&lt;span style=&quot;white-space: pre; font-size: 9px;&quot;&gt;&#x9;&lt;/span&gt;&lt;/span&gt;[1,2]&lt;/font&gt;" style="aspect=fixed;align=left;verticalAlign=middle;html=1;fontSize=9;horizontal=1;fillColor=#d5e8d4;strokeColor=#82b366;" vertex="1" parent="1">
          <mxGeometry x="599" y="700" width="80" height="80" as="geometry" />
        </mxCell>
        <mxCell id="SyGSCCSuvmH1LhOSkO1K-19" style="rounded=0;orthogonalLoop=1;jettySize=auto;html=1;exitX=0.25;exitY=1;exitDx=0;exitDy=0;entryX=0.75;entryY=0;entryDx=0;entryDy=0;" edge="1" parent="1" source="SyGSCCSuvmH1LhOSkO1K-64" target="SyGSCCSuvmH1LhOSkO1K-14">
          <mxGeometry relative="1" as="geometry">
            <mxPoint x="595" y="580" as="sourcePoint" />
            <mxPoint x="530" y="710" as="targetPoint" />
          </mxGeometry>
        </mxCell>
        <mxCell id="SyGSCCSuvmH1LhOSkO1K-73" value="transfer( )" style="edgeLabel;html=1;align=center;verticalAlign=middle;resizable=0;points=[];" vertex="1" connectable="0" parent="SyGSCCSuvmH1LhOSkO1K-19">
          <mxGeometry x="-0.1001" y="1" relative="1" as="geometry">
            <mxPoint as="offset" />
          </mxGeometry>
        </mxCell>
        <mxCell id="SyGSCCSuvmH1LhOSkO1K-20" value="transfer( )" style="text;html=1;align=center;verticalAlign=middle;resizable=0;points=[];autosize=1;strokeColor=none;fillColor=none;rotation=50;" vertex="1" parent="1">
          <mxGeometry x="452" y="623" width="80" height="30" as="geometry" />
        </mxCell>
        <mxCell id="SyGSCCSuvmH1LhOSkO1K-40" value="&lt;b style=&quot;font-size: 9px;&quot;&gt;TokenID&lt;/b&gt;: 1&lt;br style=&quot;font-size: 9px;&quot;&gt;&lt;br style=&quot;font-size: 9px;&quot;&gt;&lt;b style=&quot;font-size: 9px;&quot;&gt;emittedCO&lt;sub style=&quot;font-size: 9px;&quot;&gt;2&lt;/sub&gt;&lt;/b&gt;: 10kg" style="rounded=0;whiteSpace=wrap;html=1;align=left;fontSize=9;fillColor=#fff2cc;strokeColor=#d6b656;" vertex="1" parent="1">
          <mxGeometry x="80" y="700" width="80" height="80" as="geometry" />
        </mxCell>
        <mxCell id="SyGSCCSuvmH1LhOSkO1K-41" value="" style="html=1;verticalAlign=bottom;labelBackgroundColor=none;endArrow=oval;endFill=0;endSize=16;rounded=0;jumpSize=200;fontColor=default;exitX=0.5;exitY=0;exitDx=0;exitDy=0;" edge="1" parent="1">
          <mxGeometry width="160" relative="1" as="geometry">
            <mxPoint x="193.5" y="577.5" as="sourcePoint" />
            <mxPoint x="194.16000000000003" y="541.5" as="targetPoint" />
          </mxGeometry>
        </mxCell>
        <mxCell id="SyGSCCSuvmH1LhOSkO1K-42" style="orthogonalLoop=1;jettySize=auto;html=1;exitX=0.5;exitY=1;exitDx=0;exitDy=0;entryX=0.25;entryY=0;entryDx=0;entryDy=0;endArrow=none;endFill=0;" edge="1" parent="1" source="SyGSCCSuvmH1LhOSkO1K-43" target="SyGSCCSuvmH1LhOSkO1K-48">
          <mxGeometry relative="1" as="geometry">
            <mxPoint x="182.5" y="560.5" as="targetPoint" />
          </mxGeometry>
        </mxCell>
        <mxCell id="SyGSCCSuvmH1LhOSkO1K-43" value="Web Interface" style="rounded=0;whiteSpace=wrap;html=1;labelBackgroundColor=none;" vertex="1" parent="1">
          <mxGeometry x="70" y="479" width="83" height="23" as="geometry" />
        </mxCell>
        <mxCell id="SyGSCCSuvmH1LhOSkO1K-44" value="ERP Systems" style="rounded=0;whiteSpace=wrap;html=1;labelBackgroundColor=none;" vertex="1" parent="1">
          <mxGeometry x="160" y="479" width="83" height="23" as="geometry" />
        </mxCell>
        <mxCell id="SyGSCCSuvmH1LhOSkO1K-54" style="edgeStyle=orthogonalEdgeStyle;rounded=0;orthogonalLoop=1;jettySize=auto;html=1;exitX=0.5;exitY=1;exitDx=0;exitDy=0;endArrow=none;endFill=0;" edge="1" parent="1">
          <mxGeometry relative="1" as="geometry">
            <mxPoint x="194" y="529" as="targetPoint" />
            <mxPoint x="285.5" y="502" as="sourcePoint" />
            <Array as="points">
              <mxPoint x="286" y="519" />
              <mxPoint x="194" y="519" />
              <mxPoint x="194" y="529" />
            </Array>
          </mxGeometry>
        </mxCell>
        <mxCell id="SyGSCCSuvmH1LhOSkO1K-46" value="Smart Meters" style="rounded=0;whiteSpace=wrap;html=1;labelBackgroundColor=none;" vertex="1" parent="1">
          <mxGeometry x="250" y="479" width="83" height="23" as="geometry" />
        </mxCell>
        <mxCell id="SyGSCCSuvmH1LhOSkO1K-47" value="" style="html=1;verticalAlign=bottom;labelBackgroundColor=none;endArrow=halfCircle;endFill=0;endSize=8;rounded=0;fontColor=default;exitX=0.413;exitY=0.987;exitDx=0;exitDy=0;exitPerimeter=0;" edge="1" parent="1" source="SyGSCCSuvmH1LhOSkO1K-44">
          <mxGeometry width="160" relative="1" as="geometry">
            <mxPoint x="195.164" y="504.3230000000001" as="sourcePoint" />
            <mxPoint x="194" y="540.5" as="targetPoint" />
          </mxGeometry>
        </mxCell>
        <mxCell id="SyGSCCSuvmH1LhOSkO1K-49" style="rounded=0;orthogonalLoop=1;jettySize=auto;html=1;exitX=0.25;exitY=1;exitDx=0;exitDy=0;entryX=0.46;entryY=0.006;entryDx=0;entryDy=0;entryPerimeter=0;" edge="1" parent="1" source="SyGSCCSuvmH1LhOSkO1K-48" target="SyGSCCSuvmH1LhOSkO1K-40">
          <mxGeometry relative="1" as="geometry" />
        </mxCell>
        <mxCell id="SyGSCCSuvmH1LhOSkO1K-68" value="audit&lt;br style=&quot;border-color: var(--border-color); font-size: 12px;&quot;&gt;&lt;span style=&quot;font-size: 12px; background-color: rgb(251, 251, 251);&quot;&gt;Emissions( )&lt;/span&gt;" style="edgeLabel;html=1;align=center;verticalAlign=middle;resizable=0;points=[];" vertex="1" connectable="0" parent="SyGSCCSuvmH1LhOSkO1K-49">
          <mxGeometry x="-0.8457" relative="1" as="geometry">
            <mxPoint x="-29" y="54" as="offset" />
          </mxGeometry>
        </mxCell>
        <mxCell id="SyGSCCSuvmH1LhOSkO1K-51" style="rounded=0;orthogonalLoop=1;jettySize=auto;html=1;exitX=0.75;exitY=1;exitDx=0;exitDy=0;entryX=0.5;entryY=0;entryDx=0;entryDy=0;" edge="1" parent="1" source="SyGSCCSuvmH1LhOSkO1K-48" target="SyGSCCSuvmH1LhOSkO1K-5">
          <mxGeometry relative="1" as="geometry" />
        </mxCell>
        <mxCell id="SyGSCCSuvmH1LhOSkO1K-48" value="Client" style="rounded=0;whiteSpace=wrap;html=1;" vertex="1" parent="1">
          <mxGeometry x="144.5" y="560.5" width="70" height="30" as="geometry" />
        </mxCell>
        <mxCell id="SyGSCCSuvmH1LhOSkO1K-55" value="&lt;b style=&quot;font-size: 9px;&quot;&gt;TokenID&lt;/b&gt;: 2&lt;br style=&quot;font-size: 9px;&quot;&gt;&lt;br style=&quot;font-size: 9px;&quot;&gt;&lt;b style=&quot;font-size: 9px;&quot;&gt;emittedCO&lt;sub style=&quot;font-size: 9px;&quot;&gt;2&lt;/sub&gt;&lt;/b&gt;: 10kg" style="rounded=0;whiteSpace=wrap;html=1;align=left;fontSize=9;fillColor=#fff2cc;strokeColor=#d6b656;" vertex="1" parent="1">
          <mxGeometry x="339" y="700" width="80" height="80" as="geometry" />
        </mxCell>
        <mxCell id="SyGSCCSuvmH1LhOSkO1K-10" style="rounded=0;orthogonalLoop=1;jettySize=auto;html=1;exitX=0.25;exitY=1;exitDx=0;exitDy=0;entryX=0.75;entryY=0;entryDx=0;entryDy=0;" edge="1" parent="1" source="SyGSCCSuvmH1LhOSkO1K-62" target="SyGSCCSuvmH1LhOSkO1K-5">
          <mxGeometry relative="1" as="geometry">
            <mxPoint x="415" y="580" as="sourcePoint" />
            <mxPoint x="310" y="710" as="targetPoint" />
          </mxGeometry>
        </mxCell>
        <mxCell id="SyGSCCSuvmH1LhOSkO1K-62" value="Client" style="rounded=0;whiteSpace=wrap;html=1;" vertex="1" parent="1">
          <mxGeometry x="386" y="560.5" width="70" height="30" as="geometry" />
        </mxCell>
        <mxCell id="SyGSCCSuvmH1LhOSkO1K-63" value="Tier 1&amp;nbsp;&lt;br&gt;Supplier" style="text;html=1;strokeColor=none;fillColor=none;align=center;verticalAlign=middle;whiteSpace=wrap;rounded=0;" vertex="1" parent="1">
          <mxGeometry x="391" y="503" width="60" height="30" as="geometry" />
        </mxCell>
        <mxCell id="SyGSCCSuvmH1LhOSkO1K-65" value="OEM" style="text;html=1;strokeColor=none;fillColor=none;align=center;verticalAlign=middle;whiteSpace=wrap;rounded=0;" vertex="1" parent="1">
          <mxGeometry x="583" y="503" width="60" height="30" as="geometry" />
        </mxCell>
        <mxCell id="SyGSCCSuvmH1LhOSkO1K-66" value="" style="rounded=0;orthogonalLoop=1;jettySize=auto;html=1;exitX=0.25;exitY=1;exitDx=0;exitDy=0;entryX=0.75;entryY=0;entryDx=0;entryDy=0;" edge="1" parent="1" target="SyGSCCSuvmH1LhOSkO1K-64">
          <mxGeometry relative="1" as="geometry">
            <mxPoint x="595" y="580" as="sourcePoint" />
            <mxPoint x="572" y="700" as="targetPoint" />
          </mxGeometry>
        </mxCell>
        <mxCell id="SyGSCCSuvmH1LhOSkO1K-67" value="transfer( )" style="edgeLabel;html=1;align=center;verticalAlign=middle;resizable=0;points=[];" vertex="1" connectable="0" parent="SyGSCCSuvmH1LhOSkO1K-66">
          <mxGeometry x="-0.1756" y="1" relative="1" as="geometry">
            <mxPoint x="-1" y="3" as="offset" />
          </mxGeometry>
        </mxCell>
        <mxCell id="SyGSCCSuvmH1LhOSkO1K-64" value="Client" style="rounded=0;whiteSpace=wrap;html=1;" vertex="1" parent="1">
          <mxGeometry x="578" y="560.5" width="70" height="30" as="geometry" />
        </mxCell>
        <mxCell id="SyGSCCSuvmH1LhOSkO1K-70" value="transfer( )" style="text;html=1;align=center;verticalAlign=middle;resizable=0;points=[];autosize=1;strokeColor=none;fillColor=none;rotation=48;" vertex="1" parent="1">
          <mxGeometry x="210.5" y="621" width="80" height="30" as="geometry" />
        </mxCell>
      </root>
    </mxGraphModel>
  </diagram>
</mxfile>
